<svg width="30" height="31" viewBox="0 0 30 31" fill="none" xmlns="http://www.w3.org/2000/svg">
<path d="M25.8751 9.91785H2.91675V11.9761H5.69591L9.65925 21.238C9.90854 21.8386 10.3698 22.3587 10.9799 22.7272C11.5899 23.0957 12.3189 23.2944 13.0667 23.2962H23.4584V21.238H13.0667C12.8184 21.2379 12.5762 21.1727 12.3729 21.0511C12.1697 20.9296 12.0153 20.7577 11.9309 20.5588L11.3751 19.1798H22.5884C23.1129 19.1792 23.6228 19.0332 24.0413 18.7641C24.4599 18.4949 24.7642 18.117 24.9084 17.6876L27.0834 11.2248C27.1325 11.0897 27.1484 10.9474 27.1301 10.8068C27.1117 10.6662 27.0595 10.5303 26.9767 10.4077C26.8939 10.285 26.7824 10.1782 26.649 10.0939C26.5155 10.0097 26.3632 9.94972 26.2013 9.91785C26.0933 9.90287 25.9831 9.90287 25.8751 9.91785ZM22.5522 17.1216H10.4688L8.26966 11.9761H24.268L22.5522 17.1216Z" fill="#505E71"/>
<path d="M13.1875 27.4128C14.1885 27.4128 15 26.7216 15 25.8691C15 25.0166 14.1885 24.3254 13.1875 24.3254C12.1865 24.3254 11.375 25.0166 11.375 25.8691C11.375 26.7216 12.1865 27.4128 13.1875 27.4128Z" fill="#505E71"/>
<path d="M20.4375 27.4128C21.4385 27.4128 22.25 26.7216 22.25 25.8691C22.25 25.0166 21.4385 24.3254 20.4375 24.3254C19.4365 24.3254 18.625 25.0166 18.625 25.8691C18.625 26.7216 19.4365 27.4128 20.4375 27.4128Z" fill="#505E71"/>
<ellipse cx="17.4166" cy="8.20268" rx="8.21667" ry="6.89189" fill="#B248AD"/>
<path d="M17.4118 11.5309C18.9694 11.5309 19.9069 10.11 19.9069 7.84436V7.83459C19.9069 5.56897 18.9694 4.15295 17.4118 4.15295C15.8542 4.15295 14.9264 5.56897 14.9264 7.83459V7.84436C14.9264 10.11 15.8542 11.5309 17.4118 11.5309ZM17.4118 10.7643C16.401 10.7643 15.8102 9.64124 15.8102 7.84436V7.83459C15.8102 6.03772 16.401 4.92444 17.4118 4.92444C18.4225 4.92444 19.0231 6.03772 19.0231 7.83459V7.84436C19.0231 9.64124 18.4225 10.7643 17.4118 10.7643Z" fill="white"/>
</svg>
