<svg width="80" height="79" viewBox="0 0 80 79" fill="none" xmlns="http://www.w3.org/2000/svg">
<circle cx="40" cy="39.5" r="39.5" fill="#3C286D"/>
<path d="M23.5576 25.3252C27.0205 25.3252 29.1826 23.2158 29.1826 19.8496V18.2412H23.8564V20.1748H26.5986L26.5898 20.4121C26.5371 22.0117 25.3418 23.0752 23.6016 23.0752C21.5098 23.0752 20.1826 21.3789 20.1826 18.6279V18.6104C20.1826 15.9121 21.4482 14.2422 23.4961 14.2422C24.9814 14.2422 26.0625 14.9893 26.4229 16.2461L26.4404 16.334H29.0771L29.0596 16.2461C28.6816 13.7148 26.4932 11.9922 23.4961 11.9922C19.8047 11.9922 17.4756 14.5674 17.4756 18.6367V18.6543C17.4756 22.7852 19.7871 25.3252 23.5576 25.3252ZM32.7861 13.8379C33.5771 13.8379 34.2275 13.2051 34.2275 12.4141C34.2275 11.6143 33.5771 10.9814 32.7861 10.9814C31.9951 10.9814 31.3359 11.6143 31.3359 12.4141C31.3359 13.2051 31.9951 13.8379 32.7861 13.8379ZM31.4941 25H34.0605V15.3232H31.4941V25ZM37.3916 25H39.958V17.2568H41.9531V15.3232H39.9053V14.5938C39.9053 13.75 40.2744 13.2842 41.2676 13.2842C41.6016 13.2842 41.874 13.3105 42.0322 13.3369V11.623C41.6631 11.5703 41.2324 11.5264 40.7139 11.5264C38.376 11.5264 37.3916 12.4932 37.3916 14.418V15.3232H35.8271V17.2568H37.3916V25ZM48.0967 25.0352C48.5889 25.0352 49.0635 24.9824 49.3799 24.9209V23.0137C49.1338 23.04 48.958 23.0576 48.624 23.0576C47.7539 23.0576 47.3848 22.6709 47.3848 21.8008V17.2568H49.3799V15.3232H47.3848V13.0117H44.792V15.3232H43.2979V17.2568H44.792V22.3896C44.792 24.2705 45.7412 25.0352 48.0967 25.0352ZM22.0459 46.2021C24.5684 46.2021 26.0801 44.8486 26.3438 42.7393L26.3525 42.6865H23.9795L23.9619 42.7217C23.7334 43.6885 23.1094 44.1895 22.0547 44.1895C20.6836 44.1895 19.9189 43.1084 19.9189 41.1484V41.1309C19.9189 39.1973 20.6748 38.125 22.0547 38.125C23.1533 38.125 23.7949 38.7402 23.9619 39.6807L23.9707 39.6982H26.3613V39.6719C26.1328 37.5098 24.6123 36.1123 22.0459 36.1123C19.0137 36.1123 17.3086 37.9492 17.3086 41.1309V41.1484C17.3086 44.3652 19.0225 46.2021 22.0459 46.2021ZM31.002 46.1494C32.2676 46.1494 33.2871 45.6133 33.7793 44.7168H33.9375V46H36.4688V39.3906C36.4688 37.3252 35.0186 36.1123 32.4521 36.1123C30.0176 36.1123 28.418 37.2373 28.2158 38.9336L28.207 39.0127H30.5801L30.5977 38.9775C30.7998 38.4062 31.3887 38.0811 32.3115 38.0811C33.3662 38.0811 33.9375 38.5557 33.9375 39.3906V40.1904L31.5996 40.3311C29.1914 40.4717 27.8467 41.4912 27.8467 43.2314V43.249C27.8467 45.0068 29.1562 46.1494 31.002 46.1494ZM30.3516 43.0908V43.0732C30.3516 42.3701 30.8877 41.957 31.9863 41.8867L33.9375 41.7637V42.4756C33.9375 43.4951 33.0498 44.2773 31.8633 44.2773C30.9756 44.2773 30.3516 43.8291 30.3516 43.0908ZM38.9824 46H41.5488V40.5859C41.5488 39.2148 42.4717 38.3799 43.9307 38.3799C44.3262 38.3799 44.7217 38.4414 45.1084 38.5293V36.2881C44.8535 36.2178 44.4932 36.165 44.1504 36.165C42.8936 36.165 42.0146 36.7803 41.707 37.8262H41.5488V36.3232H38.9824V46ZM50.0479 46.1494C51.4102 46.1494 52.4385 45.543 52.9395 44.4971H53.0977V46H55.6641V32.623H53.0977V37.8701H52.9395C52.4561 36.8154 51.375 36.165 50.0479 36.165C47.5957 36.165 46.1191 38.0371 46.1191 41.1484V41.166C46.1191 44.2598 47.6309 46.1494 50.0479 46.1494ZM50.918 44.0225C49.5645 44.0225 48.7295 42.9502 48.7295 41.166V41.1484C48.7295 39.3818 49.5645 38.292 50.918 38.292C52.2715 38.292 53.124 39.3818 53.124 41.1572V41.1748C53.124 42.9502 52.2803 44.0225 50.918 44.0225ZM62.168 46.2021C64.6465 46.2021 66.4131 44.9541 66.4131 43.0381V43.0293C66.4131 41.5967 65.5078 40.7881 63.5742 40.375L61.9658 40.0322C60.9639 39.8125 60.6035 39.5137 60.6035 38.9951V38.9863C60.6035 38.3359 61.2363 37.9229 62.124 37.9229C63.082 37.9229 63.6533 38.4062 63.7939 38.9248L63.8027 38.9688H66.1846V38.9336C66.0791 37.3779 64.6729 36.1123 62.1328 36.1123C59.7158 36.1123 58.0986 37.3252 58.0986 39.1445V39.1533C58.0986 40.6035 59.0127 41.5088 60.8584 41.9043L62.4756 42.2471C63.46 42.4668 63.8467 42.792 63.8467 43.3105V43.3281C63.8467 43.9697 63.1787 44.3916 62.1943 44.3916C61.1836 44.3916 60.5947 43.9609 60.3926 43.3633L60.375 43.3281H57.8525L57.8613 43.3633C58.0459 45.0244 59.54 46.2021 62.168 46.2021ZM28.3037 67.2021C30.8262 67.2021 32.3379 65.8486 32.6016 63.7393L32.6104 63.6865H30.2373L30.2197 63.7217C29.9912 64.6885 29.3672 65.1895 28.3125 65.1895C26.9414 65.1895 26.1768 64.1084 26.1768 62.1484V62.1309C26.1768 60.1973 26.9326 59.125 28.3125 59.125C29.4111 59.125 30.0527 59.7402 30.2197 60.6807L30.2285 60.6982H32.6191V60.6719C32.3906 58.5098 30.8701 57.1123 28.3037 57.1123C25.2715 57.1123 23.5664 58.9492 23.5664 62.1309V62.1484C23.5664 65.3652 25.2803 67.2021 28.3037 67.2021ZM38.9209 67.2021C41.9004 67.2021 43.6934 65.3213 43.6934 62.166V62.1484C43.6934 59.0195 41.874 57.1123 38.9209 57.1123C35.9678 57.1123 34.1484 59.0283 34.1484 62.1484V62.166C34.1484 65.3125 35.9414 67.2021 38.9209 67.2021ZM38.9209 65.1895C37.5498 65.1895 36.7764 64.0732 36.7764 62.166V62.1484C36.7764 60.2588 37.5586 59.125 38.9209 59.125C40.2744 59.125 41.0654 60.2588 41.0654 62.1484V62.166C41.0654 64.0732 40.2832 65.1895 38.9209 65.1895ZM45.7852 67H48.3516V61.1641C48.3516 60.0566 49.0547 59.2393 50.0566 59.2393C51.0586 59.2393 51.6475 59.8457 51.6475 60.8828V67H54.2139V61.0498C54.2139 60.0039 54.8818 59.2393 55.9189 59.2393C56.9912 59.2393 57.5186 59.8281 57.5186 60.9971V67H60.085V60.3555C60.085 58.3604 58.8809 57.1123 56.9561 57.1123C55.6025 57.1123 54.4775 57.8242 54.0381 58.8965H53.8799C53.4844 57.7803 52.5088 57.1123 51.1904 57.1123C49.9248 57.1123 48.9229 57.7451 48.5098 58.835H48.3516V57.3232H45.7852V67Z" fill="white"/>
<path d="M19.6289 67.2197C20.5342 67.2197 21.1758 66.5605 21.1758 65.6904C21.1758 64.8203 20.5342 64.1699 19.6289 64.1699C18.7324 64.1699 18.082 64.8203 18.082 65.6904C18.082 66.5605 18.7324 67.2197 19.6289 67.2197Z" fill="#FFCE03"/>
</svg>
