<svg width="25" height="24" viewBox="0 0 25 24" fill="none" xmlns="http://www.w3.org/2000/svg">
<g clip-path="url(#clip0_204_54)">
<path d="M12 6.25L10.8828 7.33828L15.2422 11.7188H5.75V13.2812H15.2422L10.8828 17.6352L12 18.75L18.25 12.5L12 6.25Z" fill="#505E71"/>
<path d="M12 23.4375C9.83677 23.4375 7.72212 22.796 5.92346 21.5942C4.12479 20.3924 2.72291 18.6842 1.89507 16.6856C1.06724 14.687 0.85064 12.4879 1.27267 10.3662C1.69469 8.24454 2.73639 6.29566 4.26602 4.76602C5.79566 3.23639 7.74454 2.19469 9.86621 1.77267C11.9879 1.35064 14.187 1.56724 16.1856 2.39507C18.1842 3.22291 19.8924 4.62479 21.0942 6.42346C22.296 8.22212 22.9375 10.3368 22.9375 12.5C22.9342 15.3998 21.7808 18.1799 19.7303 20.2303C17.6799 22.2808 14.8998 23.4342 12 23.4375ZM12 3.12501C10.1458 3.12501 8.33324 3.67484 6.79153 4.70498C5.24982 5.73512 4.04821 7.19929 3.33863 8.91235C2.62906 10.6254 2.44341 12.5104 2.80514 14.329C3.16688 16.1475 4.05976 17.818 5.37088 19.1291C6.682 20.4402 8.35246 21.3331 10.171 21.6949C11.9896 22.0566 13.8746 21.8709 15.5877 21.1614C17.3007 20.4518 18.7649 19.2502 19.795 17.7085C20.8252 16.1668 21.375 14.3542 21.375 12.5C21.3721 10.0145 20.3835 7.6316 18.6259 5.87408C16.8684 4.11655 14.4855 3.1279 12 3.12501Z" fill="#505E71"/>
</g>
<defs>
<clipPath id="clip0_204_54">
<rect width="24" height="24" fill="white" transform="translate(0.5)"/>
</clipPath>
</defs>
</svg>
