<svg width="23" height="25" viewBox="0 0 23 25" fill="none" xmlns="http://www.w3.org/2000/svg">
<g clip-path="url(#clip0_32_563)">
<path d="M21.235 19.6605C20.705 18.3888 19.9359 17.2337 18.9705 16.2595C18.0081 15.2825 16.868 14.5036 15.6132 13.9657C15.6019 13.96 15.5907 13.9571 15.5794 13.9514C17.3298 12.6707 18.4676 10.5846 18.4676 8.23101C18.4676 4.33201 15.3491 1.17297 11.5001 1.17297C7.65104 1.17297 4.5325 4.33201 4.5325 8.23101C4.5325 10.5846 5.67035 12.6707 7.42066 13.9543C7.40943 13.96 7.39819 13.9628 7.38695 13.9685C6.1283 14.5064 4.99888 15.2777 4.0296 16.2624C3.06513 17.2373 2.29616 18.3922 1.76515 19.6633C1.24349 20.9077 0.962146 22.2419 0.93635 23.5936C0.9356 23.624 0.940859 23.6542 0.951818 23.6825C0.962777 23.7108 0.979214 23.7366 1.00016 23.7583C1.02111 23.7801 1.04614 23.7973 1.07378 23.8091C1.10142 23.8209 1.13111 23.827 1.16111 23.827H2.84681C2.97042 23.827 3.06876 23.7274 3.07157 23.605C3.12776 21.4079 3.9987 19.3503 5.5383 17.7907C7.13129 16.177 9.24684 15.289 11.5001 15.289C13.7533 15.289 15.8688 16.177 17.4618 17.7907C19.0014 19.3503 19.8723 21.4079 19.9285 23.605C19.9313 23.7302 20.0297 23.827 20.1533 23.827H21.839C21.869 23.827 21.8987 23.8209 21.9263 23.8091C21.954 23.7973 21.979 23.7801 21.9999 23.7583C22.0209 23.7366 22.0373 23.7108 22.0483 23.6825C22.0592 23.6542 22.0645 23.624 22.0638 23.5936C22.0357 22.2332 21.7575 20.9099 21.235 19.6605ZM11.5001 13.1261C10.2105 13.1261 8.99679 12.6167 8.0837 11.6917C7.17062 10.7668 6.66772 9.53732 6.66772 8.23101C6.66772 6.9247 7.17062 5.69524 8.0837 4.7703C8.99679 3.84535 10.2105 3.33592 11.5001 3.33592C12.7896 3.33592 14.0033 3.84535 14.9164 4.7703C15.8295 5.69524 16.3324 6.9247 16.3324 8.23101C16.3324 9.53732 15.8295 10.7668 14.9164 11.6917C14.0033 12.6167 12.7896 13.1261 11.5001 13.1261Z" fill="#505E71"/>
</g>
<defs>
<clipPath id="clip0_32_563">
<rect width="22" height="24" fill="white" transform="translate(0.5 0.5)"/>
</clipPath>
</defs>
</svg>
